<svg width="26" height="31" viewBox="0 0 26 31" fill="none" xmlns="http://www.w3.org/2000/svg">
<path d="M13 0.798096L13.555 1.1681C17.398 3.7301 21.208 5.0001 25 5.0001H26V17.5001C26 25.5741 20.21 31.0001 13 31.0001C5.79 31.0001 0 25.5741 0 17.5001V5.0001H1C4.792 5.0001 8.602 3.7301 12.445 1.1681L13 0.798096ZM12 3.8031C8.8 5.6691 5.582 6.7231 2.352 6.9521L2 6.9721V17.5001C2 24.0581 6.347 28.4911 12 28.9591V3.8031ZM14 3.8031V28.9601C19.654 28.4921 24 24.0591 24 17.5011V6.9721L23.648 6.9521C20.418 6.7221 17.2 5.6701 14.001 3.8041L14 3.8031Z" fill="#222222"/>
</svg>
