<svg width="36" height="30" viewBox="0 0 36 30" fill="none" xmlns="http://www.w3.org/2000/svg">
<path d="M20.0586 18.5387L20.1337 19.2392C19.6853 18.6975 19.1592 18.2212 18.5699 17.8111C16.6264 16.4585 14.0532 15.859 11.4111 15.859C8.76899 15.859 6.19582 16.4585 4.25237 17.8111C2.26736 19.1926 1 21.3243 1 24.178C1 25.5683 1.21839 26.7774 1.84163 27.6568C2.5172 28.6101 3.53514 29 4.69046 29H18.1318C19.2833 29 20.2996 28.6091 20.9756 27.658C21.3848 27.0824 21.6212 26.3654 21.7356 25.5478L21.7114 26.4924L21.7111 26.5052V26.518C21.7111 27.7245 22.5673 29 23.9629 29H31.3095C32.461 29 33.4773 28.6091 34.1534 27.658C34.7781 26.7792 35 25.5705 35 24.178C35 21.3107 33.7151 19.2568 31.7346 17.8955C29.8079 16.5712 27.263 15.9235 24.6873 15.6689L24.6873 15.6688L24.6769 15.6679C23.8392 15.5939 22.7461 15.6674 21.9936 15.7788L21.9914 15.7791C20.6316 15.9835 19.9297 17.3376 20.0586 18.5387ZM21.5116 21.863C21.2506 20.9488 20.833 20.1379 20.2879 19.432H20.4673L20.8613 20.1618C21.0883 20.5971 21.2649 20.9607 21.377 21.3486L21.3778 21.3513C21.427 21.5199 21.4716 21.6905 21.5116 21.863ZM30.9259 8.318C30.9259 4.43209 28.2345 1 24.5889 1C20.9433 1 18.2519 4.43209 18.2519 8.318C18.2519 12.2025 20.9311 15.636 24.5889 15.636C28.2467 15.636 30.9259 12.2025 30.9259 8.318ZM17.7481 8.318C17.7481 4.43209 15.0567 1 11.4111 1C7.76429 1 5.07413 4.44651 5.07413 8.318C5.07413 12.1881 7.7521 15.636 11.4111 15.636C15.0689 15.636 17.7481 12.2025 17.7481 8.318Z" fill="#F7F7F8" stroke="black" stroke-width="2"/>
</svg>
