<svg width="25" height="25" viewBox="0 0 25 25" fill="none" xmlns="http://www.w3.org/2000/svg">
<path d="M7.35244 13.7289C11.2732 13.7289 14.7049 15.2414 14.7049 18.5672C14.7049 20.3117 14.0271 21.0938 12.603 21.0938H2.10192C0.669183 21.0938 0 20.3117 0 18.5672C0 15.2414 3.43171 13.7289 7.35244 13.7289ZM14.885 14.7688C14.8164 14.2273 15.1939 13.7375 15.7344 13.6688C16.2835 13.6 17.0728 13.557 17.6476 13.6C21.5511 13.9266 25 15.2414 25 18.5672C25 20.3117 24.3222 21.0938 22.8981 21.0938H17.1585C16.6181 21.0938 16.1805 20.6555 16.1805 20.1141L16.2234 18.6961C16.2406 17.9484 16.129 17.2094 15.8888 16.5133C15.7773 16.1867 15.6057 15.8945 15.4255 15.6023L14.8936 14.7688H14.885ZM17.6476 3.90625C19.9468 3.90625 21.8171 5.77109 21.8171 8.08281C21.8171 10.3945 19.9554 12.2594 17.6476 12.2594C15.3397 12.2594 13.478 10.3945 13.478 8.08281C13.478 5.77109 15.3483 3.90625 17.6476 3.90625ZM7.35244 3.90625C9.65168 3.90625 11.522 5.77109 11.522 8.08281C11.522 10.3945 9.66026 12.2594 7.35244 12.2594C5.04461 12.2594 3.18291 10.3859 3.18291 8.08281C3.18291 5.77969 5.05319 3.90625 7.35244 3.90625Z" fill="#CDCCD4"/>
</svg>
