<svg width="7" height="10" viewBox="0 0 7 10" fill="none" xmlns="http://www.w3.org/2000/svg">
<path fill-rule="evenodd" clip-rule="evenodd" d="M0.820847 0.949976C0.769413 0.898177 0.728685 0.836754 0.700988 0.769215C0.673292 0.701676 0.659169 0.629342 0.659427 0.556345C0.659685 0.483348 0.674319 0.411116 0.702492 0.343775C0.730665 0.276433 0.771826 0.215299 0.823625 0.163865C0.875424 0.112431 0.936847 0.0717024 1.00439 0.0440059C1.07193 0.0163094 1.14426 0.00218694 1.21726 0.00244488C1.29025 0.00270282 1.36248 0.0173361 1.42983 0.0455092C1.49717 0.0736823 1.5583 0.114844 1.60974 0.166643L6.05418 4.61109C6.15765 4.71518 6.21573 4.85598 6.21573 5.00275C6.21573 5.14952 6.15765 5.29033 6.05418 5.39442L1.60974 9.83886C1.5583 9.89066 1.49717 9.93182 1.42983 9.96C1.36248 9.98817 1.29025 10.0028 1.21726 10.0031C1.14426 10.0033 1.07193 9.9892 1.00439 9.9615C0.936847 9.93381 0.875424 9.89308 0.823625 9.84164C0.771826 9.79021 0.730665 9.72908 0.702492 9.66173C0.674319 9.59439 0.659685 9.52216 0.659427 9.44916C0.659169 9.37617 0.673292 9.30383 0.700988 9.23629C0.728685 9.16875 0.769413 9.10733 0.820847 9.05553L4.87085 5.00553L0.820847 0.949976Z" fill="#767676"/>
</svg>
