<svg width="20" height="20" viewBox="0 0 20 20" fill="none" xmlns="http://www.w3.org/2000/svg">
<path d="M17.7645 5.95108L17.3532 5.23725C17.0421 4.69739 16.8866 4.42746 16.622 4.31982C16.3573 4.21218 16.058 4.29712 15.4594 4.46699L14.4425 4.7534C14.0604 4.84153 13.6594 4.79154 13.3104 4.61225L13.0297 4.45027C12.7305 4.25861 12.5003 3.97603 12.3729 3.64387L12.0946 2.81272C11.9116 2.2627 11.8201 1.98769 11.6023 1.83039C11.3845 1.6731 11.0952 1.6731 10.5166 1.6731L9.58759 1.6731C9.00896 1.6731 8.71965 1.6731 8.50183 1.83039C8.28402 1.98769 8.19253 2.2627 8.00955 2.81272L7.73126 3.64387C7.60385 3.97603 7.37369 4.25861 7.07445 4.45027L6.79372 4.61225C6.44476 4.79154 6.0438 4.84153 5.66163 4.7534L4.64477 4.46699C4.04616 4.29712 3.74685 4.21218 3.4822 4.31982C3.21756 4.42746 3.06202 4.69739 2.75094 5.23725L2.33962 5.95108C2.04803 6.45712 1.90223 6.71014 1.93053 6.97949C1.95882 7.24884 2.154 7.4659 2.54436 7.90002L3.40356 8.86061C3.61356 9.12646 3.76265 9.58976 3.76265 10.0063C3.76265 10.4231 3.61361 10.8863 3.40359 11.1522L2.54437 12.1128C2.15401 12.5469 1.95883 12.7639 1.93053 13.0333C1.90223 13.3026 2.04803 13.5557 2.33962 14.0617L2.75093 14.7755C3.062 15.3154 3.21756 15.5853 3.4822 15.693C3.74686 15.8006 4.04617 15.7157 4.64478 15.5458L5.6616 15.2594C6.04384 15.1712 6.44487 15.2212 6.79387 15.4006L7.07456 15.5626C7.37374 15.7542 7.60385 16.0368 7.73123 16.3689L8.00955 17.2001C8.19253 17.7502 8.28402 18.0252 8.50183 18.1825C8.71965 18.3398 9.00896 18.3398 9.58759 18.3398H10.5166C11.0952 18.3398 11.3845 18.3398 11.6023 18.1825C11.8201 18.0252 11.9116 17.7502 12.0946 17.2001L12.3729 16.3689C12.5003 16.0368 12.7304 15.7542 13.0296 15.5626L13.3103 15.4006C13.6593 15.2212 14.0603 15.1712 14.4426 15.2594L15.4594 15.5458C16.058 15.7157 16.3573 15.8006 16.622 15.693C16.8866 15.5853 17.0422 15.3154 17.3532 14.7755L17.3532 14.7755L17.7645 14.0617C18.0561 13.5557 18.2019 13.3026 18.1736 13.0333C18.1453 12.7639 17.9502 12.5469 17.5598 12.1128L16.7006 11.1522C16.4906 10.8863 16.3415 10.4231 16.3415 10.0063C16.3415 9.58976 16.4906 9.12646 16.7006 8.86061L17.5598 7.90002C17.9502 7.4659 18.1453 7.24884 18.1736 6.97949C18.2019 6.71014 18.0561 6.45712 17.7645 5.95108Z" stroke="white" stroke-width="1.5" stroke-linecap="round"/>
<path d="M12.9329 9.99992C12.9329 11.6107 11.6271 12.9166 10.0163 12.9166C8.40545 12.9166 7.09961 11.6107 7.09961 9.99992C7.09961 8.38909 8.40545 7.08325 10.0163 7.08325C11.6271 7.08325 12.9329 8.38909 12.9329 9.99992Z" stroke="white" stroke-width="1.5"/>
</svg>
